<svg width="35" height="35" viewBox="0 0 35 35" fill="none" xmlns="http://www.w3.org/2000/svg">
<path d="M11.8123 30.9347C10.038 30.1691 8.49463 29.13 7.18213 27.8175C5.86963 26.505 4.83057 24.9616 4.06494 23.1873C3.29932 21.413 2.9165 19.5172 2.9165 17.4998C2.9165 15.4825 3.29932 13.5866 4.06494 11.8123C4.83057 10.038 5.86963 8.49463 7.18213 7.18213C8.49463 5.86963 10.038 4.83057 11.8123 4.06494C13.5866 3.29932 15.4825 2.9165 17.4998 2.9165C19.5172 2.9165 21.413 3.29932 23.1873 4.06494C24.9616 4.83057 26.505 5.86963 27.8175 7.18213C29.13 8.49463 30.1691 10.038 30.9347 11.8123C31.7004 13.5866 32.0832 15.4825 32.0832 17.4998C32.0832 19.5172 31.7004 21.413 30.9347 23.1873C30.1691 24.9616 29.13 26.505 27.8175 27.8175C26.505 29.13 24.9616 30.1691 23.1873 30.9347C21.413 31.7004 19.5172 32.0832 17.4998 32.0832C15.4825 32.0832 13.5866 31.7004 11.8123 30.9347ZM17.4998 29.1665C18.8123 29.1665 20.0762 28.9538 21.2915 28.5285C22.5068 28.1031 23.6248 27.4894 24.6457 26.6873L8.31234 10.354C7.51025 11.3748 6.89654 12.4929 6.47119 13.7082C6.04584 14.9234 5.83317 16.1873 5.83317 17.4998C5.83317 20.7568 6.96338 23.5155 9.2238 25.7759C11.4842 28.0363 14.2429 29.1665 17.4998 29.1665ZM26.6873 24.6457C27.4894 23.6248 28.1031 22.5068 28.5285 21.2915C28.9538 20.0762 29.1665 18.8123 29.1665 17.4998C29.1665 14.2429 28.0363 11.4842 25.7759 9.2238C23.5155 6.96338 20.7568 5.83317 17.4998 5.83317C16.1873 5.83317 14.9234 6.04584 13.7082 6.47119C12.4929 6.89654 11.3748 7.51025 10.354 8.31234L26.6873 24.6457Z" fill="#DF0000"/>
</svg>
